<svg width="32" height="32" viewBox="0 0 32 32" fill="none" xmlns="http://www.w3.org/2000/svg">
<path d="M21.3333 5.33332H23.9999C24.7072 5.33332 25.3854 5.61427 25.8855 6.11437C26.3856 6.61447 26.6666 7.29275 26.6666 7.99999V26.6667C26.6666 27.3739 26.3856 28.0522 25.8855 28.5523C25.3854 29.0524 24.7072 29.3333 23.9999 29.3333H7.99992C7.29267 29.3333 6.6144 29.0524 6.1143 28.5523C5.6142 28.0522 5.33325 27.3739 5.33325 26.6667V7.99999C5.33325 7.29275 5.6142 6.61447 6.1143 6.11437C6.6144 5.61427 7.29267 5.33332 7.99992 5.33332H10.6666M11.9999 2.66666H19.9999C20.7363 2.66666 21.3333 3.26361 21.3333 3.99999V6.66666C21.3333 7.40304 20.7363 7.99999 19.9999 7.99999H11.9999C11.2635 7.99999 10.6666 7.40304 10.6666 6.66666V3.99999C10.6666 3.26361 11.2635 2.66666 11.9999 2.66666Z" stroke="#E7E2E2" stroke-width="4" stroke-linecap="round" stroke-linejoin="round"/>
</svg>
