<svg width="20" height="21" viewBox="0 0 20 21" fill="none" xmlns="http://www.w3.org/2000/svg">
<path d="M15.8333 9.44281H4.16667C3.24619 9.44281 2.5 10.189 2.5 11.1095V16.9428C2.5 17.8633 3.24619 18.6095 4.16667 18.6095H15.8333C16.7538 18.6095 17.5 17.8633 17.5 16.9428V11.1095C17.5 10.189 16.7538 9.44281 15.8333 9.44281Z" stroke="#E7E2E2" stroke-linecap="round" stroke-linejoin="round"/>
<path d="M5.83325 9.44281V6.10948C5.83325 5.00441 6.27224 3.9446 7.05364 3.1632C7.83504 2.3818 8.89485 1.94281 9.99992 1.94281C11.105 1.94281 12.1648 2.3818 12.9462 3.1632C13.7276 3.9446 14.1666 5.00441 14.1666 6.10948V9.44281" stroke="#E7E2E2" stroke-linecap="round" stroke-linejoin="round"/>
</svg>
